<svg width="295" height="76" viewBox="0 0 295 76" fill="none" xmlns="http://www.w3.org/2000/svg">
<path d="M114.866 8.05238C114.556 8.05238 114.262 7.99236 113.985 7.87232C113.708 7.75228 113.47 7.5875 113.271 7.37798C113.073 7.16845 112.916 6.91637 112.8 6.62173C112.684 6.32708 112.626 6.0128 112.626 5.67887C112.626 5.34494 112.684 5.03066 112.8 4.73601C112.916 4.44137 113.073 4.18929 113.271 3.97976C113.47 3.77024 113.708 3.60546 113.985 3.48542C114.262 3.36538 114.556 3.30536 114.866 3.30536C115.217 3.30536 115.544 3.38066 115.848 3.53125C116.153 3.68185 116.405 3.89355 116.604 4.16637L116.188 4.74911C116.029 4.5374 115.831 4.37044 115.596 4.24821C115.36 4.12599 115.119 4.06488 114.872 4.06488C114.453 4.06488 114.103 4.21766 113.821 4.52321C113.54 4.82659 113.399 5.21181 113.399 5.67887C113.399 6.14593 113.539 6.53115 113.818 6.83452C114.1 7.1379 114.451 7.28958 114.872 7.28958C115.283 7.28958 115.636 7.13135 115.933 6.81488L116.453 7.24375C116.323 7.48165 116.098 7.67589 115.779 7.82649C115.463 7.97708 115.158 8.05238 114.866 8.05238ZM122.139 7.87232C121.864 7.99236 121.572 8.05238 121.262 8.05238C120.952 8.05238 120.658 7.99236 120.381 7.87232C120.104 7.75228 119.866 7.5875 119.667 7.37798C119.469 7.16845 119.312 6.91637 119.196 6.62173C119.08 6.32708 119.022 6.0128 119.022 5.67887C119.022 5.34494 119.08 5.03066 119.196 4.73601C119.312 4.44137 119.469 4.18929 119.667 3.97976C119.866 3.77024 120.104 3.60546 120.381 3.48542C120.658 3.36538 120.952 3.30536 121.262 3.30536C121.572 3.30536 121.864 3.36538 122.139 3.48542C122.414 3.60546 122.651 3.77024 122.849 3.97976C123.048 4.18929 123.205 4.44137 123.321 4.73601C123.437 5.03066 123.494 5.34494 123.494 5.67887C123.494 6.0128 123.437 6.32708 123.321 6.62173C123.205 6.91637 123.048 7.16845 122.849 7.37798C122.651 7.5875 122.414 7.75228 122.139 7.87232ZM120.204 6.84762C120.488 7.15099 120.843 7.30268 121.268 7.30268C121.694 7.30268 122.047 7.1499 122.329 6.84435C122.61 6.53879 122.751 6.1503 122.751 5.67887C122.751 5.20962 122.609 4.82222 122.326 4.51667C122.042 4.21111 121.689 4.05833 121.268 4.05833C120.843 4.05833 120.488 4.21111 120.204 4.51667C119.92 4.82004 119.779 5.20744 119.779 5.67887C119.779 6.15248 119.92 6.54206 120.204 6.84762ZM126.754 8H125.988L125.981 3.30536H126.666L128.162 5.65923L129.635 3.30536H130.319L130.339 8H129.57V4.80804L128.401 6.6872H127.933L126.738 4.80804L126.754 8ZM134.473 8.05238C134.224 8.05238 133.986 8.00437 133.759 7.90833C133.532 7.8123 133.337 7.68353 133.173 7.52202C133.009 7.35833 132.878 7.16409 132.78 6.93929C132.684 6.71448 132.636 6.47986 132.636 6.23542L132.629 3.30536H133.418V6.23542C133.418 6.52351 133.521 6.76905 133.726 6.97202C133.931 7.175 134.18 7.27649 134.473 7.27649C134.761 7.27649 135.006 7.175 135.209 6.97202C135.414 6.76905 135.517 6.52351 135.517 6.23542V3.30536H136.296V6.23542C136.296 6.47986 136.248 6.71448 136.152 6.93929C136.056 7.16409 135.926 7.35833 135.763 7.52202C135.599 7.68353 135.405 7.8123 135.18 7.90833C134.955 8.00437 134.719 8.05238 134.473 8.05238ZM139.536 8H138.78V3.30536H139.425L141.762 6.58571V3.30536H142.522V8H141.864L139.536 4.80804V8ZM145.772 8H145.006V3.30536H145.772V8ZM150.498 8.05238C150.188 8.05238 149.895 7.99236 149.617 7.87232C149.34 7.75228 149.102 7.5875 148.904 7.37798C148.705 7.16845 148.548 6.91637 148.432 6.62173C148.317 6.32708 148.259 6.0128 148.259 5.67887C148.259 5.34494 148.317 5.03066 148.432 4.73601C148.548 4.44137 148.705 4.18929 148.904 3.97976C149.102 3.77024 149.34 3.60546 149.617 3.48542C149.895 3.36538 150.188 3.30536 150.498 3.30536C150.849 3.30536 151.177 3.38066 151.48 3.53125C151.786 3.68185 152.038 3.89355 152.236 4.16637L151.821 4.74911C151.661 4.5374 151.464 4.37044 151.228 4.24821C150.992 4.12599 150.751 4.06488 150.505 4.06488C150.086 4.06488 149.735 4.21766 149.454 4.52321C149.172 4.82659 149.031 5.21181 149.031 5.67887C149.031 6.14593 149.171 6.53115 149.45 6.83452C149.732 7.1379 150.083 7.28958 150.505 7.28958C150.915 7.28958 151.268 7.13135 151.565 6.81488L152.086 7.24375C151.955 7.48165 151.73 7.67589 151.411 7.82649C151.095 7.97708 150.791 8.05238 150.498 8.05238ZM155.486 8H154.655L156.567 3.30536H157.176L159.081 8H158.23L157.68 6.65119H156.036L155.486 8ZM156.861 4.60833L156.337 5.90804H157.385L156.861 4.60833ZM162.822 7.99345H161.568V3.30536H162.936C163.748 3.30536 164.378 3.50943 164.825 3.91756C165.273 4.32569 165.497 4.90407 165.497 5.65268C165.497 6.38383 165.26 6.95675 164.786 7.37143C164.315 7.78611 163.66 7.99345 162.822 7.99345ZM162.324 7.2372L162.828 7.24375C163.437 7.2503 163.909 7.11607 164.243 6.84107C164.579 6.56389 164.747 6.16776 164.747 5.65268C164.747 5.10486 164.597 4.69891 164.298 4.43482C163.999 4.17073 163.548 4.03869 162.943 4.03869H162.324V7.2372ZM171.1 7.87232C170.825 7.99236 170.533 8.05238 170.223 8.05238C169.913 8.05238 169.619 7.99236 169.342 7.87232C169.065 7.75228 168.827 7.5875 168.629 7.37798C168.43 7.16845 168.273 6.91637 168.157 6.62173C168.041 6.32708 167.984 6.0128 167.984 5.67887C167.984 5.34494 168.041 5.03066 168.157 4.73601C168.273 4.44137 168.43 4.18929 168.629 3.97976C168.827 3.77024 169.065 3.60546 169.342 3.48542C169.619 3.36538 169.913 3.30536 170.223 3.30536C170.533 3.30536 170.825 3.36538 171.1 3.48542C171.375 3.60546 171.612 3.77024 171.811 3.97976C172.009 4.18929 172.166 4.44137 172.282 4.73601C172.398 5.03066 172.456 5.34494 172.456 5.67887C172.456 6.0128 172.398 6.32708 172.282 6.62173C172.166 6.91637 172.009 7.16845 171.811 7.37798C171.612 7.5875 171.375 7.75228 171.1 7.87232ZM169.165 6.84762C169.449 7.15099 169.804 7.30268 170.229 7.30268C170.655 7.30268 171.009 7.1499 171.29 6.84435C171.572 6.53879 171.712 6.1503 171.712 5.67887C171.712 5.20962 171.571 4.82222 171.287 4.51667C171.003 4.21111 170.651 4.05833 170.229 4.05833C169.804 4.05833 169.449 4.21111 169.165 4.51667C168.882 4.82004 168.74 5.20744 168.74 5.67887C168.74 6.15248 168.882 6.54206 169.165 6.84762ZM176.786 8.05238C176.404 8.06548 176.046 7.98472 175.712 7.81012C175.38 7.63333 175.124 7.3878 174.943 7.07351L175.46 6.59226C175.709 6.86726 175.93 7.05496 176.125 7.15536C176.321 7.25575 176.535 7.30268 176.766 7.29613C177.024 7.2874 177.228 7.22192 177.378 7.0997C177.529 6.97748 177.602 6.82143 177.598 6.63155C177.591 6.44603 177.518 6.29653 177.378 6.18304C177.239 6.06736 177.011 5.97133 176.694 5.89494C176.127 5.75526 175.728 5.59266 175.499 5.40714C175.272 5.21944 175.159 4.95536 175.159 4.61488C175.159 4.25476 175.292 3.95139 175.558 3.70476C175.824 3.45595 176.158 3.32282 176.56 3.30536C176.931 3.2879 177.267 3.35556 177.568 3.50833C177.869 3.66111 178.123 3.89137 178.328 4.19911L177.752 4.68036C177.551 4.44464 177.358 4.28095 177.172 4.18929C176.987 4.09544 176.796 4.05397 176.599 4.06488C176.398 4.07143 176.234 4.12708 176.105 4.23185C175.978 4.33443 175.915 4.4621 175.915 4.61488C175.915 4.66726 175.922 4.71091 175.935 4.74583C175.95 4.77857 175.975 4.81131 176.01 4.84405C176.045 4.8746 176.104 4.90625 176.187 4.93899C176.272 4.97173 176.371 5.00556 176.485 5.04048C176.6 5.0754 176.756 5.11905 176.953 5.17143C177.398 5.27401 177.744 5.45079 177.991 5.70179C178.239 5.95278 178.368 6.25833 178.377 6.61845C178.386 7.02659 178.242 7.36488 177.945 7.63333C177.648 7.8996 177.262 8.03929 176.786 8.05238Z" fill="#1752FE"/>
<path fill-rule="evenodd" clip-rule="evenodd" d="M102 4H5C2.37665 4 0.25 6.12665 0.25 8.75V70.75C0.25 73.3734 2.37666 75.5 5.00001 75.5H286C288.623 75.5 290.75 73.3734 290.75 70.75V16.5084C290.262 16.6149 289.761 16.6876 289.25 16.7236V70.75C289.25 72.5449 287.795 74 286 74H5.00001C3.20508 74 1.75 72.5449 1.75 70.75V8.75C1.75 6.95507 3.20507 5.5 5 5.5H102V4ZM189 5.5H278.026C278.062 4.98904 278.135 4.48817 278.242 4H189V5.5Z" fill="#282828"/>
<circle cx="288" cy="7" r="7" fill="#282828"/>
<path d="M286.734 9H285.802L287.535 6.58411L285.891 4.27368H286.827L287.997 5.92822L289.17 4.27368H290.103L288.455 6.56433L290.195 9H289.252L287.997 7.21692L286.734 9Z" fill="white"/>
</svg>
