<svg width="41" height="43" viewBox="0 0 41 43" fill="none" xmlns="http://www.w3.org/2000/svg">
<path fill-rule="evenodd" clip-rule="evenodd" d="M16.9072 11.0275C16.9072 10.0545 17.0054 9.23047 17.5776 8.44598C18.2895 7.47069 19.3344 6.92225 20.5004 6.92225C20.7129 6.92225 21.0684 6.98615 21.2783 7.02431C22.3296 7.21644 23.3128 7.99915 23.7525 9.01882C24.4085 10.5408 24.1728 12.3143 22.9996 13.5509C22.6843 13.8837 22.3868 14.0794 21.9428 14.2782C19.5744 15.3369 16.9072 13.5088 16.9072 11.0275ZM6.588 33.051H13.9128V20.7352H6.588V33.051ZM27.0876 33.051H34.4124V20.7352H27.0876V33.051ZM16.8145 33.051H24.1851V20.7352H16.8145V33.051ZM2.90209 35.2727V37.639H0.598871C0.316576 37.639 0 37.9709 0 38.2669V42.3721C0 42.6681 0.316576 43 0.598871 43H40.4007C40.683 43 40.9996 42.6681 40.9996 42.3721V38.2669C40.9996 37.9709 40.683 37.639 40.4007 37.639H38.0975V35.2727C38.0975 34.9328 37.7305 34.5481 37.4064 34.5481H3.59322C3.26903 34.5481 2.90209 34.9328 2.90209 35.2727ZM0 13.6841V15.5193C0 15.8485 0.392758 16.1471 0.737267 16.1471H2.90251V18.4172C2.90251 18.9248 3.2813 19.2381 3.77775 19.2381H37.2223C37.7187 19.2381 38.0975 18.9244 38.0975 18.4172V16.1471H40.2627C40.6068 16.1471 41 15.8485 41 15.5193V13.6841C41 13.5345 40.9209 13.4121 40.8447 13.3153C40.7177 13.1547 38.814 11.9265 38.6358 11.8156L24.2507 2.31425C24.122 2.22595 24.0255 2.17315 23.9091 2.09284L21.3384 0.392957C20.588 -0.102232 20.511 -0.152372 19.6904 0.37432C19.4567 0.524297 19.2731 0.651644 19.0449 0.808276C18.8249 0.959583 18.6365 1.06963 18.4181 1.21383L13.3047 4.59451C11.4395 5.85689 9.37878 7.13124 7.53646 8.39983L3.04006 11.3652C2.62953 11.6518 0.305149 13.1409 0.176064 13.2891C0.100729 13.3752 0 13.5319 0 13.6841Z" fill="#0A0A0A"/>
</svg>
