<svg width="17" height="18" viewBox="0 0 17 18" fill="none" xmlns="http://www.w3.org/2000/svg">
  <path fill-rule="evenodd" clip-rule="evenodd"
    d="M8.5 17.3887C13.1944 17.3887 17 13.5832 17 8.88873C17 4.19431 13.1944 0.388733 8.5 0.388733C3.80558 0.388733 0 4.19431 0 8.88873C0 13.5832 3.80558 17.3887 8.5 17.3887ZM13.7985 6.46945L12.6923 5.36324L7.40491 10.6506L4.20341 7.44912L3.0972 8.55533L7.40491 12.863L13.7985 6.46945Z"
    fill="url(#paint0_linear_1_210)" />
  <path
    d="M14.0718 6.74274L14.3451 6.46945L14.0718 6.19615L12.9656 5.08994L12.6923 4.81664L12.419 5.08994L7.40491 10.104L4.47671 7.17583L4.20341 6.90253L3.93011 7.17583L2.8239 8.28204L2.5506 8.55533L2.8239 8.82863L7.13161 13.1363L7.40491 13.4096L7.67821 13.1363L14.0718 6.74274ZM16.6135 8.88873C16.6135 13.3697 12.981 17.0022 8.5 17.0022C4.01904 17.0022 0.386503 13.3697 0.386503 8.88873C0.386503 4.40777 4.01904 0.775236 8.5 0.775236C12.981 0.775236 16.6135 4.40777 16.6135 8.88873Z"
    stroke="white" stroke-opacity="0.19" stroke-width="0.773006" />
  <defs>
    <linearGradient id="paint0_linear_1_210" x1="8.5" y1="0.388733" x2="8.5" y2="17.3887"
      gradientUnits="userSpaceOnUse">
      <stop stop-color="#71FF5A" />
      <stop offset="1" stop-color="#01DB7F" />
    </linearGradient>
  </defs>
</svg>