<svg width="28" height="28" viewBox="0 0 28 28" fill="none" xmlns="http://www.w3.org/2000/svg">
<circle cx="14" cy="14" r="14" fill="white" fill-opacity="0.1"/>
<circle cx="14" cy="14" r="13.5" stroke="white" stroke-opacity="0.15"/>
<g clip-path="url(#clip0_294_1193)">
<path d="M12.5538 14.783C14.6121 12.6811 16.5497 10.7 18.4983 8.72264C19.4439 7.76038 19.769 7.76224 20.7164 8.70375C22.4366 10.4151 22.4366 10.4151 20.7312 12.1472C18.3708 14.5459 16.0103 16.9428 13.6499 19.3377C12.7786 20.2189 12.4461 20.2189 11.573 19.3377C9.90854 17.6547 8.24841 15.9673 6.59262 14.2755C5.81426 13.4792 5.81983 13.0906 6.57404 12.2962C8.37968 10.4094 8.38526 10.3943 10.2318 12.2962C11.0027 13.0849 11.7476 13.917 12.5538 14.783Z" fill="white" fill-opacity="0.2"/>
</g>
<defs>
<clipPath id="clip0_294_1193">
<rect width="16" height="12" fill="white" transform="translate(6 8)"/>
</clipPath>
</defs>
</svg>
