<svg width="11" height="11" viewBox="0 0 11 11" fill="none" xmlns="http://www.w3.org/2000/svg">
<path fill-rule="evenodd" clip-rule="evenodd" d="M5.5 11C8.53757 11 11 8.53757 11 5.5C11 2.46243 8.53757 0 5.5 0C2.46243 0 0 2.46243 0 5.5C0 8.53757 2.46243 11 5.5 11ZM3.14645 7.94445C2.95118 7.74919 2.95118 7.43261 3.14645 7.23734L4.83834 5.54545L3.14645 3.85355C2.95118 3.65829 2.95118 3.34171 3.14645 3.14645C3.34171 2.95118 3.65829 2.95118 3.85355 3.14645L5.54545 4.83834L7.23734 3.14645C7.43261 2.95118 7.74919 2.95118 7.94445 3.14645C8.13971 3.34171 8.13971 3.65829 7.94445 3.85355L6.25256 5.54545L7.94445 7.23734C8.13971 7.43261 8.13971 7.74919 7.94445 7.94445C7.74919 8.13971 7.43261 8.13971 7.23734 7.94445L5.54545 6.25256L3.85355 7.94445C3.65829 8.13971 3.34171 8.13971 3.14645 7.94445Z" fill="#5A5A5A"/>
</svg>
