<svg width="45" height="46" viewBox="0 0 45 46" fill="none" xmlns="http://www.w3.org/2000/svg">
<path fill-rule="evenodd" clip-rule="evenodd" d="M23.7639 5.06315C23.6098 5.06315 23.1462 4.63389 23.0069 4.52689C22.7489 4.32914 22.5177 4.15175 22.2546 3.95034C21.6831 3.51214 21.2389 3.00924 20.4386 3.00924C19.867 3.00924 19.5371 3.31114 19.1829 3.67326C18.8569 4.00649 18.5564 4.31368 18.23 4.64691C17.6808 5.2084 16.5935 6.11492 16.5935 6.86926C16.5935 7.61628 16.7841 7.80385 17.1622 8.34174L18.4493 10.1072C18.6953 10.4335 18.5616 10.44 18.3299 11.0173C18.2472 11.2244 17.8898 12.2595 17.7385 12.325L15.5443 12.6668C14.9728 12.7527 14.5764 12.7669 14.2106 13.0741C14.0423 13.2157 13.9137 13.3378 13.8098 13.5497C13.6988 13.7755 13.6144 13.9444 13.6144 14.2707V17.8475C13.6144 18.1079 13.7462 18.4306 13.8492 18.599C14.2998 19.3355 15.1547 19.3436 15.9805 19.4657C16.283 19.5104 16.5318 19.5454 16.8303 19.5886L17.7095 19.7167C17.8834 19.7594 17.8539 19.8213 17.9204 19.9971L18.2121 20.7258C18.2603 20.8503 18.3351 20.9935 18.3606 21.1054C18.523 21.061 19.6139 19.8774 19.7548 19.733C19.9283 19.5556 21.7591 17.7369 21.8065 17.616C21.9155 17.3369 21.9108 16.1 21.9732 15.6618C22.027 15.2838 22.1316 14.9221 22.2972 14.5763C22.8791 13.3597 23.8072 12.9435 24.8751 12.2892C25.414 11.9589 27.872 10.4396 28.393 10.2549C29.9727 9.69378 31.3756 10.169 32.5203 11.34L33.854 12.7034C34.5385 13.4033 35.1964 14.2898 35.1964 15.4393C35.1964 16.6045 35.0149 17.055 34.48 17.9647C33.9519 18.8631 32.3352 21.8744 31.9149 22.3191C31.1619 23.1162 30.3273 23.6235 29.064 23.6187C28.9645 23.6182 27.8346 23.6943 27.8004 23.7078C27.7996 23.7082 24.4986 27.0108 24.3541 27.2317C24.4476 27.2822 24.5686 27.3285 24.6669 27.3725C24.9949 27.5194 25.3491 27.7138 25.7053 27.7985C25.7053 28.209 26.0058 30.046 26.0715 30.505C26.1435 31.0103 26.2303 31.289 26.5101 31.5796C26.7361 31.8139 27.1035 32.0833 27.5413 32.0833H31.0401C31.2877 32.0833 31.4668 32.0255 31.6299 31.9425C31.7171 31.8985 31.7975 31.8542 31.8719 31.8001L32.2576 31.4156C32.3117 31.3411 32.3563 31.2569 32.3961 31.1678C32.4765 30.9859 32.5223 30.7752 32.5541 30.5506C32.6047 30.1958 32.857 27.9848 32.9453 27.8339C33.015 27.7155 33.2892 27.6577 33.4154 27.6064L34.3949 27.191C34.5429 27.13 34.7439 27.0604 34.8852 26.9839C35.409 27.3424 35.8929 27.7387 36.3996 28.1272C37.1837 28.7286 37.8431 29.4134 38.8815 28.8738C39.2672 28.6737 40.9686 26.8383 41.3889 26.4086C41.7463 26.0436 42.0556 25.6494 42.0556 25.0716C42.0556 24.3933 41.6958 24.0817 41.418 23.6695L40.1344 21.8996C40.017 21.7401 40.0011 21.7751 40.0731 21.5973C40.2184 21.2384 40.7883 19.9702 40.8083 19.7245C41.0212 19.7245 41.2409 19.6748 41.4562 19.6431L43.4215 19.3501C44.091 19.2496 44.5109 19.0877 44.8265 18.5197C44.9033 18.3818 45 18.1336 45 17.9183V14.1645C45 13.5522 44.555 13.0493 44.0607 12.8585C43.5752 12.6713 42.6765 12.6009 42.14 12.5203C41.7248 12.4581 41.2301 12.3328 40.8086 12.3234C40.7995 12.2091 40.6785 11.9511 40.6307 11.8323C40.4397 11.3555 40.2459 10.7923 40.0119 10.3403C40.3597 9.80934 40.778 9.32556 41.1342 8.79622C41.6862 7.97637 42.4054 7.351 41.8602 6.25488C41.6604 5.85289 39.9052 4.15785 39.4833 3.72697C39.0121 3.24523 38.7589 3.01006 38.037 3.01006C37.6788 3.01006 37.3369 3.21553 37.1164 3.37909C36.8581 3.57032 36.638 3.74609 36.3845 3.94099C36.2368 4.0541 34.9485 5.06396 34.9198 5.06396C34.7117 5.06396 33.6204 4.54682 33.3509 4.43656C32.8462 4.23027 32.9457 4.3263 32.8777 3.82259C32.7937 3.20129 32.6035 1.40168 32.4116 0.934997C32.2357 0.506559 31.7111 0 31.1436 0H27.437C27.1787 0 26.8352 0.199368 26.6824 0.326313C26.4786 0.495166 26.3238 0.678667 26.2139 0.945169C26.0965 1.22957 26.0727 1.53188 26.0273 1.85209L25.7594 3.77376C25.6759 4.35478 25.7825 4.23271 25.3192 4.4215C25.1541 4.48905 23.7937 5.06396 23.7654 5.06396L23.7639 5.06315ZM7.06691 42.955C6.51727 42.955 6.06235 42.518 6.06235 41.8926C6.06235 41.4186 6.36722 41.1737 6.60801 40.9275L11.0939 36.3416C11.3705 36.0588 11.5834 35.7663 12.0897 35.7663C12.8312 35.7663 13.372 36.6248 12.9207 37.3596C12.8339 37.5008 12.6716 37.6326 12.5486 37.7584L8.02808 42.3796C7.77217 42.6413 7.56282 42.955 7.06691 42.955ZM4.01862 39.8387C3.61584 39.8387 3.23774 39.5413 3.11675 39.2731C2.81387 38.6014 3.18918 38.1896 3.55932 37.8112C3.81604 37.5488 4.04727 37.3124 4.30398 37.05L8.0452 33.2254C8.32817 32.9361 8.51961 32.65 9.04099 32.65C9.79441 32.65 10.3182 33.5175 9.87202 34.2434C9.77451 34.4025 6.08066 38.1376 5.72405 38.5021C5.46734 38.7646 5.2361 39.0009 4.97939 39.2634C4.72985 39.5185 4.499 39.8387 4.01822 39.8387H4.01862ZM17.5284 25.9216C17.3728 25.815 15.5809 23.9486 15.2852 23.6463C15.005 23.3599 14.7897 23.0885 14.2719 23.0885C13.932 23.0885 13.6594 23.2716 13.4831 23.4506C13.2841 23.6528 13.111 23.8323 12.9124 24.0357C12.7094 24.2432 12.5327 24.4039 12.3611 24.6407C11.5982 25.6941 12.5852 26.0798 11.8775 27.8644C11.7761 28.1207 11.6017 28.397 11.4238 28.6045C10.8523 29.271 10.1088 29.7812 8.97214 29.7812C8.03843 29.7812 7.78251 29.2795 6.64264 30.4452C5.81082 31.296 4.977 32.1183 4.18339 32.9955C4.09026 33.0984 4.00429 33.1778 3.90598 33.2783C3.29704 33.9008 1.56693 35.6113 1.18764 36.13C0.578694 36.9637 0 38.3068 0 39.4135C0 40.6736 0.013134 41.3946 0.577102 42.5416C0.72675 42.8463 0.881971 43.1677 1.08296 43.4408C1.36912 43.8297 1.38982 43.8623 1.72295 44.2028C2.22483 44.7159 2.64551 45.0695 3.31296 45.41C4.43254 45.9813 5.137 46 6.33857 46C7.43785 46 8.7218 45.423 9.57392 44.8457C10.2573 44.3831 11.2368 43.3122 11.8549 42.6799L15.1284 39.3334C15.6749 38.7747 15.9686 38.5705 15.9686 37.7132C15.9686 37.4866 15.8994 37.1806 15.8994 36.6508C15.8994 36.2151 16.0502 35.737 16.1994 35.4347C16.3017 35.2268 16.3626 35.1263 16.4808 34.9436L16.8255 34.5168C17.4551 33.9276 18.1731 33.6054 19.0861 33.6054C19.4384 33.6054 19.6899 33.7116 19.9868 33.7116C20.7717 33.7116 21.2314 33.0943 21.6409 32.6757C22.0505 32.257 22.735 31.7252 22.2968 30.8895C22.0688 30.4545 19.8881 28.4596 19.6402 28.0808C19.8248 27.9543 25.7236 21.8793 25.8669 21.7332C26.1252 21.4691 26.3528 21.1542 26.7361 21.0285C27.1234 20.9015 29.1631 20.9239 29.5607 20.729C30.0077 20.5101 30.5573 19.3143 30.8351 18.8448L32.2687 16.3441C32.8677 15.3359 32.1856 14.9311 31.3052 14.0311C31.14 13.8622 30.4077 13.0867 30.2553 12.9797C29.6395 12.5476 29.146 12.9374 28.627 13.2588C27.5134 13.9481 26.2991 14.6231 25.1971 15.3123C24.4393 15.7859 24.6992 16.2754 24.579 17.0883C24.5372 17.3719 24.5272 18.2882 24.4707 18.5714C24.3843 19.0035 24.0628 19.2574 23.8056 19.5206C23.6636 19.6659 17.7178 25.791 17.5272 25.9216H17.5284Z" fill="#0A0A0A"/>
</svg>
