<svg width="17" height="17" viewBox="0 0 17 17" fill="none" xmlns="http://www.w3.org/2000/svg">
<g clip-path="url(#clip0_399_1991)">
<path fill-rule="evenodd" clip-rule="evenodd" d="M3.66971 8.4496C3.66971 8.17703 3.6874 7.97853 3.90415 7.7624C4.13503 7.53209 4.29973 7.51096 4.59141 7.51096C4.99248 7.51096 5.3778 8.05031 5.66241 8.33442L7.25404 9.9515L8.44381 8.75182C8.65374 8.50074 9.03091 8.17649 9.17774 8.00087C9.35048 7.79422 9.62489 7.53795 9.81857 7.34458L10.1855 6.96056C10.312 6.83408 10.4257 6.71974 10.5525 6.59363L10.9195 6.20961C11.046 6.08313 11.1596 5.96879 11.2864 5.84268C11.4734 5.65674 11.8453 5.21627 12.0295 5.1009C12.1928 4.99858 12.3722 4.9341 12.6128 4.96845C12.8409 5.00105 12.9622 5.08575 13.0959 5.21947C13.3873 5.51088 13.4124 6.01715 13.1673 6.34104C13.1174 6.40702 13.0756 6.443 13.0188 6.49975L12.2678 7.26773C12.2421 7.29326 12.223 7.30956 12.1996 7.33613C11.9849 7.5799 11.7588 7.79573 11.5253 8.02719C11.4648 8.08708 11.4366 8.13308 11.3806 8.18971L10.0229 9.5629C9.96692 9.61952 9.93866 9.66553 9.87822 9.72541C9.46827 10.1316 9.08301 10.5376 8.67487 10.9456L7.77829 11.8582C7.52658 12.0704 7.17779 12.0981 6.86673 11.9429C6.65318 11.8363 6.12544 11.2381 5.93537 11.048L4.74084 9.81899C4.55041 9.61312 4.33583 9.41251 4.13454 9.21347C4.07501 9.15461 4.04935 9.10994 3.98976 9.05101C3.83852 8.90148 3.66959 8.7171 3.66959 8.44954L3.66971 8.4496ZM0.768102 5.01916C0.768102 5.74258 0.972897 6.01009 0.972897 6.50398C0.972897 6.92536 0.725416 7.19637 0.499792 7.4987C0.272597 7.80315 0 8.0913 0 8.53497C0 9.2014 0.972897 9.75234 0.972897 10.4806C0.972897 10.6922 0.920008 10.95 0.877201 11.1358C0.808856 11.4322 0.685387 11.9678 0.835784 12.2732C0.884326 12.3718 0.908778 12.3965 0.97501 12.4753C1.23125 12.7802 1.86682 12.9724 2.24357 13.2548C2.53959 13.4767 2.61784 13.7351 2.72078 14.143C2.86357 14.7085 2.90891 15.2727 3.47952 15.4494C4.22124 15.6789 4.84462 15.2266 5.52609 15.963C5.83569 16.2976 6.22415 17 6.72491 17C6.9672 17 7.0324 16.976 7.24674 16.8903C7.59728 16.7501 8.11428 16.4368 8.43174 16.4368C8.84012 16.4368 9.02016 16.5435 9.37596 16.7215C9.444 16.7555 9.49598 16.7719 9.56403 16.8065C9.6343 16.8421 9.67645 16.8596 9.75331 16.8903C10.7517 17.2896 10.9603 16.477 11.551 15.8864C11.7613 15.6761 11.9029 15.5927 12.2326 15.5439C12.8113 15.4584 13.5869 15.6508 13.928 15.1742C14.1327 14.8881 14.1768 14.5504 14.2758 14.1566C14.3797 13.7433 14.4565 13.4797 14.7565 13.2548C14.8944 13.1514 15.0246 13.0809 15.1851 13.0007C15.3446 12.921 15.4855 12.848 15.6345 12.7674C15.8981 12.6249 16.2319 12.3821 16.2319 11.9824C16.2319 11.5969 16.2177 11.537 16.1261 11.1495C16.0244 10.7192 15.9483 10.3224 16.1942 9.93079L16.4171 9.60757C16.4467 9.56984 16.4691 9.54448 16.5002 9.50289C16.7273 9.19844 17 8.91029 17 8.46663C17 7.80267 16.0271 7.2472 16.0271 6.521C16.0271 6.31701 16.0812 6.04631 16.1228 5.86574C16.2161 5.46132 16.2319 5.4234 16.2319 5.0191C16.2319 4.31826 15.2734 4.13232 14.7663 3.75392C14.1528 3.29613 14.3439 2.42975 13.9349 1.83745C13.648 1.4221 13.06 1.50125 12.5787 1.48688L12.2617 1.46243C12.0247 1.42844 11.8982 1.39155 11.7429 1.28144C11.5756 1.16281 11.5168 1.07883 11.3972 0.94457L11.0921 0.566891C10.5039 -0.175667 10.1291 -0.096823 9.3759 0.28001C8.6087 0.663847 8.39044 0.663484 7.62397 0.28001C6.89137 -0.0864996 6.49421 -0.1843 5.91521 0.557232C5.79313 0.713532 5.58236 0.981758 5.44899 1.11512C5.2387 1.32539 5.09712 1.40882 4.7674 1.4576C4.1887 1.54314 3.41305 1.35074 3.07199 1.82737C2.66475 2.39636 2.84195 3.29806 2.24351 3.74673C1.72512 4.1354 0.768042 4.3179 0.768042 5.01916H0.768102Z" fill="#1752FE"/>
</g>
<defs>
<clipPath id="clip0_399_1991">
<rect width="17" height="17" fill="white"/>
</clipPath>
</defs>
</svg>
