<svg width="50" height="29" viewBox="0 0 50 29" fill="none" xmlns="http://www.w3.org/2000/svg">
<path fill-rule="evenodd" clip-rule="evenodd" d="M12.5083 28.5963V29H37.4915C37.4915 27.1026 37.1091 25.2946 36.2987 23.6732C35.5705 22.216 35.3522 21.991 34.4766 20.897L33.7378 20.0926C33.6565 20.0171 33.6185 20.0054 33.536 19.9254C33.4667 19.8583 33.4234 19.8028 33.3525 19.7399C33.2717 19.6684 33.2356 19.6515 33.1521 19.5714C32.8821 19.3126 31.9484 18.6437 31.5826 18.4251C31.4046 18.3188 31.2776 18.2471 31.0929 18.1439C27.9508 16.3886 24.5051 16.1351 21.0656 17.1867C20.1968 17.4525 18.7634 18.1562 17.9882 18.7002C17.2285 19.2334 16.9186 19.5101 16.2793 20.0764C16.178 20.1662 15.9951 20.3481 15.9146 20.4496C15.5385 20.9239 15.3342 21.0696 14.8686 21.7187C14.3613 22.4261 14.1161 22.8407 13.7122 23.6507C13.0352 25.0084 12.5082 26.97 12.5082 28.5962L12.5083 28.5963ZM0 27.6207C0 27.9072 0.0356984 28.0619 0.0331133 28.3275C0.0306514 28.5786 0.0823524 28.7821 0.100325 29H10.4348C10.4348 27.8115 10.573 26.6839 10.8226 25.6894C11.0461 24.799 11.3329 23.8604 11.7275 23.0335C11.9178 22.6348 12.1155 22.2279 12.3346 21.8612C12.45 21.6683 12.538 21.5057 12.6617 21.3155C12.789 21.1199 12.8944 20.9658 13.0231 20.7708C13.2819 20.3789 13.6807 19.8942 13.9897 19.5226L14.6488 18.8062C12.3196 17.5664 9.43816 17.3028 6.81002 18.1879C5.43711 18.6503 4.17745 19.4099 3.11819 20.3954L2.35511 21.2089C2.16591 21.4536 1.98557 21.6502 1.81225 21.9075C0.653157 23.6273 0 25.4526 0 27.6206L0 27.6207ZM35.3511 18.8063L36.388 19.9838C36.4542 20.0691 36.5084 20.1333 36.5791 20.2288C37.3501 21.2681 37.6742 21.8122 38.2614 23.0111C39.1024 24.7284 39.5652 27.1136 39.5652 29H49.8997C49.9346 28.5771 50 28.102 50 27.6207C50 26.001 49.686 24.9107 49.1164 23.5304C48.7227 22.5766 47.6232 20.9921 46.751 20.2916L46.4138 19.9916C46.187 19.8056 45.955 19.6171 45.7129 19.4519C45.475 19.2896 45.2034 19.1058 44.9502 18.9744C43.4329 18.1875 42.0571 17.6626 40.0336 17.6626C38.1873 17.6626 36.5585 18.164 35.3514 18.8064L35.3511 18.8063ZM3.74587 10.2946C3.74587 11.6608 4.12304 12.8009 4.85584 13.8881C5.50826 14.8559 6.3644 15.505 7.39092 16.0145C9.48481 17.0535 12.1848 16.6222 13.9572 15.1835L14.5568 14.6427C14.6298 14.5593 14.6406 14.5254 14.7241 14.4409C15.5747 13.5805 16.2545 11.897 16.2545 10.5974C16.2545 9.46264 16.1466 8.65925 15.6636 7.69278C14.845 6.05491 13.4111 4.78085 11.639 4.33965C9.71784 3.86131 7.62456 4.2261 6.11279 5.47577L5.16469 6.40608L4.55007 7.30173C4.08833 8.10747 3.74599 9.20409 3.74599 10.2945L3.74587 10.2946ZM33.7458 10.0591C33.7458 11.258 33.8549 12.0428 34.3472 13.0539C34.6224 13.6189 35.1646 14.3989 35.6266 14.8285C35.7083 14.9045 35.7456 14.9151 35.8281 14.9959C35.914 15.0801 35.9324 15.0954 36.0243 15.1685C36.4309 15.4918 36.5034 15.531 36.9422 15.7927C38.7271 16.8572 41.3137 16.8281 43.0963 15.7643C43.52 15.5115 43.6436 15.4284 44.0056 15.1315C44.3872 14.8184 44.8534 14.3116 45.1306 13.9082C45.3102 13.6468 45.5711 13.2199 45.6951 12.9286C46.0311 12.1397 46.254 11.3849 46.254 10.2946C46.254 8.76017 45.7063 7.53774 44.8496 6.4254C44.7872 6.34442 44.7398 6.30702 44.6771 6.22876C43.7533 5.07445 41.8021 4.13794 40.3342 4.13794C38.9733 4.13794 38.5576 4.20183 37.3048 4.72401C37.0543 4.8284 36.605 5.10751 36.3741 5.26799C36.0718 5.47812 35.8303 5.69111 35.5766 5.94619C34.5765 6.95229 33.7455 8.5192 33.7455 10.059L33.7458 10.0591ZM17.6922 7.23313C17.6922 9.56245 18.8662 11.8165 20.7023 13.1205C21.0675 13.3798 21.3926 13.5671 21.817 13.7824C23.7037 14.739 26.2763 14.7506 28.1606 13.7936C29.8422 12.9396 30.8425 11.8869 31.6727 10.1942C32.6174 8.26808 32.4563 5.59786 31.4064 3.76621C31.1891 3.38693 30.8008 2.7689 30.4932 2.46454C30.394 2.36634 30.369 2.30777 30.2767 2.21131L29.5883 1.59168C28.5347 0.728972 26.8646 0 25.4181 0C23.9964 0 23.0651 0.0721914 21.7834 0.717332C21.0204 1.10132 20.3359 1.58858 19.7402 2.19459C18.5051 3.45119 17.6924 5.38302 17.6924 7.23325L17.6922 7.23313Z" fill="#0A0A0A"/>
</svg>
