<svg width="24" height="19" viewBox="0 0 24 19" fill="none" xmlns="http://www.w3.org/2000/svg">
<path fill-rule="evenodd" clip-rule="evenodd" d="M3 0C1.34315 0 0 1.34315 0 3V16C0 17.6569 1.34315 19 3 19H21C22.6569 19 24 17.6569 24 16V3C24 1.34315 22.6569 0 21 0H3ZM8.70711 5.29289C8.31658 4.90237 7.68342 4.90237 7.29289 5.29289C6.90237 5.68342 6.90237 6.31658 7.29289 6.70711L10.0858 9.5L7.29289 12.2929C6.90237 12.6834 6.90237 13.3166 7.29289 13.7071C7.68342 14.0976 8.31658 14.0976 8.70711 13.7071L11.5 10.9142L14.2929 13.7071C14.6834 14.0976 15.3166 14.0976 15.7071 13.7071C16.0976 13.3166 16.0976 12.6834 15.7071 12.2929L12.9142 9.5L15.7071 6.70711C16.0976 6.31658 16.0976 5.68342 15.7071 5.29289C15.3166 4.90237 14.6834 4.90237 14.2929 5.29289L11.5 8.08579L8.70711 5.29289Z" fill="#515151"/>
</svg>
