<svg width="18" height="18" viewBox="0 0 18 18" fill="none" xmlns="http://www.w3.org/2000/svg">
<path d="M3.24105 8.98884C3.24105 9.18973 3.30802 9.35714 3.44195 9.49107L4.45757 10.5067C4.5915 10.6406 4.75891 10.7076 4.9598 10.7076C5.1607 10.7076 5.32811 10.6406 5.46204 10.5067L7.57141 8.39732L7.57141 14C7.57141 14.1935 7.6421 14.3609 7.78347 14.5022C7.92483 14.6436 8.09224 14.7143 8.2857 14.7143L9.71427 14.7143C9.90772 14.7143 10.0751 14.6436 10.2165 14.5022C10.3579 14.3609 10.4286 14.1935 10.4286 14L10.4286 8.39732L12.5379 10.5067C12.6793 10.6481 12.8467 10.7187 13.0402 10.7187C13.2336 10.7187 13.401 10.6481 13.5424 10.5067L14.558 9.49107C14.6919 9.35714 14.7589 9.18973 14.7589 8.98884C14.7589 8.78795 14.6919 8.62053 14.558 8.48661L10.5178 4.44643L9.50221 3.4308C9.36829 3.29687 9.20087 3.22991 8.99998 3.22991C8.79909 3.22991 8.63168 3.29687 8.49775 3.4308L7.48212 4.44643L3.44195 8.48661C3.30802 8.62054 3.24105 8.78795 3.24105 8.98884ZM0.428554 9C0.428554 7.44494 0.811739 6.01079 1.57811 4.69754C2.34448 3.3843 3.38428 2.34449 4.69753 1.57812C6.01077 0.811756 7.44492 0.428571 8.99998 0.428571C10.555 0.428571 11.9892 0.811755 13.3024 1.57812C14.6157 2.34449 15.6555 3.3843 16.4219 4.69754C17.1882 6.01079 17.5714 7.44494 17.5714 9C17.5714 10.5551 17.1882 11.9892 16.4219 13.3025C15.6555 14.6157 14.6157 15.6555 13.3024 16.4219C11.9892 17.1882 10.555 17.5714 8.99998 17.5714C7.44492 17.5714 6.01077 17.1882 4.69753 16.4219C3.38428 15.6555 2.34448 14.6157 1.57811 13.3025C0.811739 11.9892 0.428554 10.5551 0.428554 9Z" fill="white"/>
</svg>
