<svg width="40" height="40" viewBox="0 0 40 40" fill="none" xmlns="http://www.w3.org/2000/svg">
<path fill-rule="evenodd" clip-rule="evenodd" d="M26.8061 20.1717C26.8061 19.48 26.9399 18.8837 27.4637 18.3668C27.5937 18.2385 27.8988 18.0332 28.081 17.9452C28.713 17.6397 29.4851 17.6351 30.1229 17.9292C31.8497 18.7256 31.8836 21.2201 30.1565 22.0548C29.5243 22.3602 28.7524 22.3649 28.1145 22.0707C27.8588 21.9528 27.8275 21.9104 27.6357 21.7579C27.1769 21.3931 26.8062 20.7998 26.8062 20.1717H26.8061ZM8.5541 20.0736C8.5541 18.7266 9.58276 17.7178 10.6926 17.7178C11.1811 17.7178 11.4094 17.7164 11.8709 17.9292C13.6024 18.7278 13.6322 21.2196 11.9045 22.0548C11.0064 22.4889 9.83222 22.2933 9.19358 21.6021C8.81016 21.1872 8.55416 20.6722 8.55416 20.0736H8.5541ZM17.6553 20.0245C17.6553 17.9266 20.2066 16.964 21.6473 18.3916C21.8287 18.5714 21.9993 18.8133 22.116 19.0578C22.7518 20.389 21.9058 22.2821 19.8932 22.2821C19.2168 22.2821 18.6861 21.953 18.3381 21.6082C17.9443 21.218 17.6553 20.5954 17.6553 20.0244V20.0245ZM0.000116594 19.092C0.000116594 21.056 -0.0176414 21.7292 0.385154 23.7181C0.588205 24.7207 0.869805 25.6698 1.20086 26.545C1.36645 26.9827 1.559 27.4176 1.73366 27.8352C3.40641 31.8345 2.75403 33.8957 1.53567 37.7853C1.44979 38.0593 1.36483 38.3225 1.28265 38.6153C1.22548 38.8186 1.04453 39.2748 1.04453 39.5092C1.04453 39.7604 1.30611 40 1.54182 40C1.80424 40 2.36485 39.8391 2.65578 39.7741L9.90409 38.1911C10.8976 38.087 12.0024 38.1773 13.0016 38.3594C13.7661 38.4987 14.4414 38.7397 15.1686 38.9203C18.8668 39.8387 22.7198 39.6639 26.3155 38.4851C26.9029 38.2925 27.5745 38.0427 28.0992 37.7914C30.8877 36.4562 32.6835 35.2827 34.851 32.9699C36.9448 30.736 38.6223 27.6203 39.3686 24.6675C40.205 21.3585 40.2125 18.143 39.3788 14.8318C38.6794 12.0546 37.2804 9.4579 35.4754 7.24836C34.9536 6.60973 34.5731 6.21709 33.9801 5.63192C32.5857 4.25584 30.7873 2.99508 28.9944 2.11046C28.7154 1.97276 28.4328 1.85379 28.1489 1.71782C25.7394 0.56412 22.5887 0 19.7441 0C16.2687 0 12.6867 0.952864 10.0747 2.48219C9.15508 3.0206 8.75598 3.2497 7.87916 3.89831L6.52858 5.01939C6.39954 5.14232 6.33266 5.16451 6.2033 5.28738C2.98735 8.34213 0.814846 12.4509 0.201676 16.8369C0.102517 17.546 0.000181404 18.2989 0.000181404 19.0921L0.000116594 19.092Z" fill="#0A0A0A"/>
</svg>
