<svg width="18" height="20" viewBox="0 0 18 20" fill="none" xmlns="http://www.w3.org/2000/svg">
<path d="M17 4H13V3C13 1.3 11.7 0 10 0H8C6.3 0 5 1.3 5 3V4H1C0.4 4 0 4.4 0 5C0 5.6 0.4 6 1 6H2V17C2 18.7 3.3 20 5 20H13C14.7 20 16 18.7 16 17V6H17C17.6 6 18 5.6 18 5C18 4.4 17.6 4 17 4ZM7 3C7 2.4 7.4 2 8 2H10C10.6 2 11 2.4 11 3V4H7V3ZM8 15C8 15.6 7.6 16 7 16C6.4 16 6 15.6 6 15V9C6 8.4 6.4 8 7 8C7.6 8 8 8.4 8 9V15ZM12 15C12 15.6 11.6 16 11 16C10.4 16 10 15.6 10 15V9C10 8.4 10.4 8 11 8C11.6 8 12 8.4 12 9V15Z" fill="white"/>
</svg>
